<mxfile host="Electron" agent="Mozilla/5.0 (X11; Linux x86_64) AppleWebKit/537.36 (KHTML, like Gecko) draw.io/26.0.4 Chrome/128.0.6613.186 Electron/32.2.5 Safari/537.36" version="26.0.4">
  <diagram name="Page-1" id="zx1rwH6tjxUTKlbiAgpk">
    <mxGraphModel dx="2244" dy="1203" grid="1" gridSize="10" guides="1" tooltips="1" connect="1" arrows="1" fold="1" page="1" pageScale="1" pageWidth="2336" pageHeight="1654" math="0" shadow="0">
      <root>
        <mxCell id="0" />
        <mxCell id="1" parent="0" />
        <mxCell id="AyC8Jgt_Ceg7Mv5qp-Ai-1" value="&lt;font color=&quot;#000000&quot; size=&quot;1&quot;&gt;&lt;b style=&quot;font-size: 14px&quot;&gt;Legend:&lt;br&gt;&lt;/b&gt;&lt;/font&gt;&lt;br&gt;&lt;br&gt;&lt;br&gt;&lt;font color=&quot;#0000ff&quot; style=&quot;font-size: 6px&quot;&gt;&lt;br&gt;&lt;/font&gt;&lt;span style=&quot;color: rgb(0 , 0 , 0)&quot;&gt;&lt;font style=&quot;font-size: 4px&quot;&gt;&amp;nbsp; &amp;nbsp;&lt;/font&gt;&amp;nbsp;In progress&amp;nbsp; &amp;nbsp; &amp;nbsp; &amp;nbsp; &amp;nbsp; &amp;nbsp; In validation&amp;nbsp; &amp;nbsp; &amp;nbsp; &amp;nbsp; &amp;nbsp; &amp;nbsp;Ready to use&lt;/span&gt;&lt;font color=&quot;#000000&quot;&gt;&amp;nbsp;&lt;br&gt;&lt;/font&gt;&lt;font color=&quot;#0000ff&quot;&gt;&lt;br&gt;&lt;br&gt;&lt;br&gt;&lt;br&gt;&amp;nbsp;attribute / method()&amp;nbsp; &amp;nbsp; &amp;nbsp; &amp;nbsp; New public attribute/method to be implemented&lt;/font&gt;&lt;br&gt;&lt;font color=&quot;#000000&quot;&gt;&amp;nbsp;&lt;/font&gt;&lt;font color=&quot;#000000&quot;&gt;attribute / method()&lt;span&gt; &lt;/span&gt;&amp;nbsp; &amp;nbsp; &amp;nbsp; &amp;nbsp;New/inherited public attribute/method that is implemented here&lt;br&gt;&lt;/font&gt;&lt;font color=&quot;#0000ff&quot;&gt;&amp;nbsp;_attribute /&amp;nbsp;&lt;/font&gt;&lt;font color=&quot;#0000ff&quot;&gt;_method()&amp;nbsp; &amp;nbsp; New protected method/attribute to be implemented&lt;/font&gt;&lt;br&gt;&lt;font color=&quot;#000000&quot;&gt;&amp;nbsp;_attribute / _method()&amp;nbsp; &amp;nbsp; New/inherited protected attribute/method that is implemented here&lt;br&gt;&lt;/font&gt;&lt;font color=&quot;#000000&quot;&gt;&lt;br&gt;&lt;br&gt;&lt;br&gt;&lt;br&gt;&lt;br&gt;&lt;/font&gt;" style="text;html=1;align=left;verticalAlign=top;whiteSpace=wrap;rounded=0;fontColor=#006600;strokeColor=#000000;shadow=1;fillColor=#ffffff;" vertex="1" parent="1">
          <mxGeometry x="40" y="40" width="489.99999999999994" height="220" as="geometry" />
        </mxCell>
        <mxCell id="AyC8Jgt_Ceg7Mv5qp-Ai-2" value="Depends on" style="endArrow=block;html=1;labelPosition=right;verticalLabelPosition=middle;align=left;verticalAlign=middle;endFill=1;fontSize=12;" edge="1" parent="1">
          <mxGeometry x="-1572.9149999999997" y="-2140" width="51.041666666666664" height="50" as="geometry">
            <mxPoint x="60.418023989898984" y="160.003015873016" as="sourcePoint" />
            <mxPoint x="106.20085227272716" y="160.003015873016" as="targetPoint" />
            <mxPoint x="98" as="offset" />
            <Array as="points">
              <mxPoint x="80.83500000000004" y="160" />
            </Array>
          </mxGeometry>
        </mxCell>
        <mxCell id="AyC8Jgt_Ceg7Mv5qp-Ai-3" value="Inherits from" style="endArrow=block;html=1;labelPosition=right;verticalLabelPosition=middle;align=left;verticalAlign=middle;endFill=0;fontSize=12;" edge="1" parent="1">
          <mxGeometry x="-1572.9149999999997" y="-2140" width="51.041666666666664" height="50" as="geometry">
            <mxPoint x="60.418023989898984" y="172.3846031746034" as="sourcePoint" />
            <mxPoint x="106.20085227272716" y="172.3846031746034" as="targetPoint" />
            <mxPoint x="98" y="1" as="offset" />
          </mxGeometry>
        </mxCell>
        <mxCell id="AyC8Jgt_Ceg7Mv5qp-Ai-4" value="" style="swimlane;fontStyle=3;align=center;verticalAlign=top;childLayout=stackLayout;horizontal=1;startSize=26;horizontalStack=0;resizeParent=1;resizeLast=0;collapsible=1;marginBottom=0;rounded=0;shadow=1;strokeWidth=1;fillColor=#f8cecc;strokeColor=#b85450;gradientColor=#ffffff;swimlaneFillColor=#ffffff;" vertex="1" parent="1">
          <mxGeometry x="60.418333333333294" y="80" width="40.83333333333333" height="34" as="geometry">
            <mxRectangle x="230" y="140" width="160" height="26" as="alternateBounds" />
          </mxGeometry>
        </mxCell>
        <mxCell id="AyC8Jgt_Ceg7Mv5qp-Ai-5" value="" style="line;html=1;strokeWidth=1;align=left;verticalAlign=middle;spacingTop=-1;spacingLeft=3;spacingRight=3;rotatable=0;labelPosition=right;points=[];portConstraint=eastwest;" vertex="1" parent="AyC8Jgt_Ceg7Mv5qp-Ai-4">
          <mxGeometry y="26" width="40.83333333333333" height="8" as="geometry" />
        </mxCell>
        <mxCell id="AyC8Jgt_Ceg7Mv5qp-Ai-6" value="" style="swimlane;fontStyle=3;align=center;verticalAlign=top;childLayout=stackLayout;horizontal=1;startSize=26;horizontalStack=0;resizeParent=1;resizeLast=0;collapsible=1;marginBottom=0;rounded=0;shadow=1;strokeWidth=1;fillColor=#fff2cc;strokeColor=#d6b656;gradientColor=#ffffff;swimlaneFillColor=#ffffff;" vertex="1" parent="1">
          <mxGeometry x="162.50166666666667" y="80" width="40.83333333333333" height="34" as="geometry">
            <mxRectangle x="230" y="140" width="160" height="26" as="alternateBounds" />
          </mxGeometry>
        </mxCell>
        <mxCell id="AyC8Jgt_Ceg7Mv5qp-Ai-7" value="" style="line;html=1;strokeWidth=1;align=left;verticalAlign=middle;spacingTop=-1;spacingLeft=3;spacingRight=3;rotatable=0;labelPosition=right;points=[];portConstraint=eastwest;" vertex="1" parent="AyC8Jgt_Ceg7Mv5qp-Ai-6">
          <mxGeometry y="26" width="40.83333333333333" height="8" as="geometry" />
        </mxCell>
        <mxCell id="AyC8Jgt_Ceg7Mv5qp-Ai-8" value="" style="swimlane;fontStyle=3;align=center;verticalAlign=top;childLayout=stackLayout;horizontal=1;startSize=26;horizontalStack=0;resizeParent=1;resizeLast=0;collapsible=1;marginBottom=0;rounded=0;shadow=1;strokeWidth=1;fillColor=#dae8fc;strokeColor=#6c8ebf;gradientColor=#ffffff;swimlaneFillColor=#ffffff;" vertex="1" parent="1">
          <mxGeometry x="264.58500000000004" y="80" width="40.83333333333333" height="34" as="geometry">
            <mxRectangle x="230" y="140" width="160" height="26" as="alternateBounds" />
          </mxGeometry>
        </mxCell>
        <mxCell id="AyC8Jgt_Ceg7Mv5qp-Ai-9" value="" style="line;html=1;strokeWidth=1;align=left;verticalAlign=middle;spacingTop=-1;spacingLeft=3;spacingRight=3;rotatable=0;labelPosition=right;points=[];portConstraint=eastwest;" vertex="1" parent="AyC8Jgt_Ceg7Mv5qp-Ai-8">
          <mxGeometry y="26" width="40.83333333333333" height="8" as="geometry" />
        </mxCell>
        <mxCell id="AyC8Jgt_Ceg7Mv5qp-Ai-26" value="RLPID&#xa;(rl.Policy)" style="swimlane;fontStyle=3;align=center;verticalAlign=top;childLayout=stackLayout;horizontal=1;startSize=40;horizontalStack=0;resizeParent=1;resizeLast=0;collapsible=1;marginBottom=0;rounded=0;shadow=1;strokeWidth=3;fillColor=#fff2cc;strokeColor=#d6b656;swimlaneFillColor=#ffffff;gradientColor=#FFFFFF;" vertex="1" parent="1">
          <mxGeometry x="600" y="320" width="300" height="550" as="geometry">
            <mxRectangle x="230" y="140" width="160" height="26" as="alternateBounds" />
          </mxGeometry>
        </mxCell>
        <mxCell id="AyC8Jgt_Ceg7Mv5qp-Ai-47" value="_action_spaceÂ : MSpace" style="text;align=left;verticalAlign=top;spacingLeft=4;spacingRight=4;overflow=hidden;rotatable=0;points=[[0,0.5],[1,0.5]];portConstraint=eastwest;fontColor=default;" vertex="1" parent="AyC8Jgt_Ceg7Mv5qp-Ai-26">
          <mxGeometry y="40" width="300" height="26" as="geometry" />
        </mxCell>
        <mxCell id="AyC8Jgt_Ceg7Mv5qp-Ai-46" value="_crtl_variable_old : bf.control.ControlVariable = None" style="text;align=left;verticalAlign=top;spacingLeft=4;spacingRight=4;overflow=hidden;rotatable=0;points=[[0,0.5],[1,0.5]];portConstraint=eastwest;fontColor=default;" vertex="1" parent="AyC8Jgt_Ceg7Mv5qp-Ai-26">
          <mxGeometry y="66" width="300" height="26" as="geometry" />
        </mxCell>
        <mxCell id="AyC8Jgt_Ceg7Mv5qp-Ai-45" value="_policy : rl.Policy" style="text;align=left;verticalAlign=top;spacingLeft=4;spacingRight=4;overflow=hidden;rotatable=0;points=[[0,0.5],[1,0.5]];portConstraint=eastwest;fontColor=default;" vertex="1" parent="AyC8Jgt_Ceg7Mv5qp-Ai-26">
          <mxGeometry y="92" width="300" height="26" as="geometry" />
        </mxCell>
        <mxCell id="AyC8Jgt_Ceg7Mv5qp-Ai-44" value="_pid_controller : bf.control.controllers.PIDController" style="text;align=left;verticalAlign=top;spacingLeft=4;spacingRight=4;overflow=hidden;rotatable=0;points=[[0,0.5],[1,0.5]];portConstraint=eastwest;fontColor=default;" vertex="1" parent="AyC8Jgt_Ceg7Mv5qp-Ai-26">
          <mxGeometry y="118" width="300" height="26" as="geometry" />
        </mxCell>
        <mxCell id="AyC8Jgt_Ceg7Mv5qp-Ai-43" value="C_BUFFER_CLS    = SARSBuffer" style="text;align=left;verticalAlign=top;spacingLeft=4;spacingRight=4;overflow=hidden;rotatable=0;points=[[0,0.5],[1,0.5]];portConstraint=eastwest;fontColor=default;" vertex="1" parent="AyC8Jgt_Ceg7Mv5qp-Ai-26">
          <mxGeometry y="144" width="300" height="30" as="geometry" />
        </mxCell>
        <mxCell id="AyC8Jgt_Ceg7Mv5qp-Ai-42" value="C_NAME          = &#39;RLPID&#39;&#xa;" style="text;align=left;verticalAlign=top;spacingLeft=4;spacingRight=4;overflow=hidden;rotatable=0;points=[[0,0.5],[1,0.5]];portConstraint=eastwest;fontColor=default;" vertex="1" parent="AyC8Jgt_Ceg7Mv5qp-Ai-26">
          <mxGeometry y="174" width="300" height="20" as="geometry" />
        </mxCell>
        <mxCell id="AyC8Jgt_Ceg7Mv5qp-Ai-41" value="    C_TYPE          = &#39;Policy&#39;" style="text;align=left;verticalAlign=top;spacingLeft=4;spacingRight=4;overflow=hidden;rotatable=0;points=[[0,0.5],[1,0.5]];portConstraint=eastwest;fontColor=default;" vertex="1" parent="AyC8Jgt_Ceg7Mv5qp-Ai-26">
          <mxGeometry y="194" width="300" height="20" as="geometry" />
        </mxCell>
        <mxCell id="AyC8Jgt_Ceg7Mv5qp-Ai-29" value="" style="line;html=1;strokeWidth=1;align=left;verticalAlign=middle;spacingTop=-1;spacingLeft=3;spacingRight=3;rotatable=0;labelPosition=right;points=[];portConstraint=eastwest;" vertex="1" parent="AyC8Jgt_Ceg7Mv5qp-Ai-26">
          <mxGeometry y="214" width="300" height="8" as="geometry" />
        </mxCell>
        <mxCell id="AyC8Jgt_Ceg7Mv5qp-Ai-54" value="assign_so(p_so:Shared)Â  Â  Â  Â  Â  Â  Â  Â  Â  Â  Â  Â  Â  Â  Â  Â  Â  Â  Â  Â  Â  Â  Â  Â  Â  Â  Â  Â Â " style="text;align=left;verticalAlign=top;spacingLeft=4;spacingRight=4;overflow=hidden;rotatable=0;points=[[0,0.5],[1,0.5]];portConstraint=eastwest;fontColor=#000000;" vertex="1" parent="AyC8Jgt_Ceg7Mv5qp-Ai-26">
          <mxGeometry y="222" width="300" height="30" as="geometry" />
        </mxCell>
        <mxCell id="AyC8Jgt_Ceg7Mv5qp-Ai-53" value="compute_action(p_obs: state) -&gt; action&#xa;Â  Â  Â  Â  Â  Â  Â  Â  Â  Â  Â  Â  Â  Â  Â  Â  Â  Â  Â  Â  Â  Â  Â  Â  Â  Â  Â  Â  Â " style="text;align=left;verticalAlign=top;spacingLeft=4;spacingRight=4;overflow=hidden;rotatable=0;points=[[0,0.5],[1,0.5]];portConstraint=eastwest;fontColor=#000000;" vertex="1" parent="AyC8Jgt_Ceg7Mv5qp-Ai-26">
          <mxGeometry y="252" width="300" height="30" as="geometry" />
        </mxCell>
        <mxCell id="AyC8Jgt_Ceg7Mv5qp-Ai-52" value="_adapt(p_sars_elem: SARSElement) -&gt; bool" style="text;align=left;verticalAlign=top;spacingLeft=4;spacingRight=4;overflow=hidden;rotatable=0;points=[[0,0.5],[1,0.5]];portConstraint=eastwest;fontColor=#000000;" vertex="1" parent="AyC8Jgt_Ceg7Mv5qp-Ai-26">
          <mxGeometry y="282" width="300" height="30" as="geometry" />
        </mxCell>
        <mxCell id="AyC8Jgt_Ceg7Mv5qp-Ai-51" value="_update_hyperparameters() -&gt; bool" style="text;align=left;verticalAlign=top;spacingLeft=4;spacingRight=4;overflow=hidden;rotatable=0;points=[[0,0.5],[1,0.5]];portConstraint=eastwest;fontColor=#000000;" vertex="1" parent="AyC8Jgt_Ceg7Mv5qp-Ai-26">
          <mxGeometry y="312" width="300" height="30" as="geometry" />
        </mxCell>
        <mxCell id="AyC8Jgt_Ceg7Mv5qp-Ai-50" value="get_hyperparam() -&gt; HyperParamTuple" style="text;align=left;verticalAlign=top;spacingLeft=4;spacingRight=4;overflow=hidden;rotatable=0;points=[[0,0.5],[1,0.5]];portConstraint=eastwest;fontColor=#000000;" vertex="1" parent="AyC8Jgt_Ceg7Mv5qp-Ai-26">
          <mxGeometry y="342" width="300" height="30" as="geometry" />
        </mxCell>
        <mxCell id="AyC8Jgt_Ceg7Mv5qp-Ai-49" value="_init_hyperparam(**p_par)" style="text;align=left;verticalAlign=top;spacingLeft=4;spacingRight=4;overflow=hidden;rotatable=0;points=[[0,0.5],[1,0.5]];portConstraint=eastwest;fontColor=#000000;" vertex="1" parent="AyC8Jgt_Ceg7Mv5qp-Ai-26">
          <mxGeometry y="372" width="300" height="30" as="geometry" />
        </mxCell>
        <mxCell id="AyC8Jgt_Ceg7Mv5qp-Ai-48" value="__init__(                  p_observation_space: MSpace,&#xa;                  Â Â Â Â Â Â Â Â Â Â Â Â Â Â Â p_action_space : MSpace,&#xa;                  Â Â Â Â Â Â Â Â Â Â Â Â Â Â Â p_pid_controller : PIDController ,&#xa;                  Â Â Â Â Â Â Â Â Â Â Â Â Â Â Â p_policy : rl.Policy,&#xa;                  Â Â Â Â Â Â Â Â Â Â Â Â Â Â Â p_id = None, &#xa;                  Â Â Â Â Â Â Â Â Â Â Â Â Â Â Â p_buffer_size : int = 1, &#xa;                  Â Â Â Â Â Â Â Â Â Â Â Â Â Â Â p_ada : bool = True, &#xa;                  Â Â Â Â Â Â Â Â Â Â Â Â Â Â Â p_visualize : bool = False,Â &#xa;Â Â Â Â Â Â Â Â Â Â Â Â Â Â Â p_logging = Log.C_LOG_ALL )&#xa;&#xa;" style="text;align=left;verticalAlign=top;spacingLeft=4;spacingRight=4;overflow=hidden;rotatable=0;points=[[0,0.5],[1,0.5]];portConstraint=eastwest;fontColor=default;" vertex="1" parent="AyC8Jgt_Ceg7Mv5qp-Ai-26">
          <mxGeometry y="402" width="300" height="148" as="geometry" />
        </mxCell>
      </root>
    </mxGraphModel>
  </diagram>
</mxfile>
